<svg width="16" height="18" viewBox="0 0 16 18" fill="none" xmlns="http://www.w3.org/2000/svg">
<path d="M4.53125 6.53125C4.68872 6.53125 4.83974 6.59381 4.95109 6.70516C5.06244 6.81651 5.125 6.96753 5.125 7.125V14.25C5.125 14.4075 5.06244 14.5585 4.95109 14.6698C4.83974 14.7812 4.68872 14.8438 4.53125 14.8438C4.37378 14.8438 4.22276 14.7812 4.11141 14.6698C4.00006 14.5585 3.9375 14.4075 3.9375 14.25V7.125C3.9375 6.96753 4.00006 6.81651 4.11141 6.70516C4.22276 6.59381 4.37378 6.53125 4.53125 6.53125ZM7.5 6.53125C7.65747 6.53125 7.8085 6.59381 7.91985 6.70516C8.03119 6.81651 8.09375 6.96753 8.09375 7.125V14.25C8.09375 14.4075 8.03119 14.5585 7.91985 14.6698C7.8085 14.7812 7.65747 14.8438 7.5 14.8438C7.34253 14.8438 7.19151 14.7812 7.08016 14.6698C6.96881 14.5585 6.90625 14.4075 6.90625 14.25V7.125C6.90625 6.96753 6.96881 6.81651 7.08016 6.70516C7.19151 6.59381 7.34253 6.53125 7.5 6.53125ZM11.0625 7.125C11.0625 6.96753 10.9999 6.81651 10.8886 6.70516C10.7772 6.59381 10.6262 6.53125 10.4688 6.53125C10.3113 6.53125 10.1603 6.59381 10.0489 6.70516C9.93756 6.81651 9.875 6.96753 9.875 7.125V14.25C9.875 14.4075 9.93756 14.5585 10.0489 14.6698C10.1603 14.7812 10.3113 14.8438 10.4688 14.8438C10.6262 14.8438 10.7772 14.7812 10.8886 14.6698C10.9999 14.5585 11.0625 14.4075 11.0625 14.25V7.125Z"/>
<path fill-rule="evenodd" clip-rule="evenodd" d="M15.4375 3.5625C15.4375 3.87744 15.3124 4.17949 15.0897 4.40219C14.867 4.62489 14.5649 4.75 14.25 4.75H13.6562V15.4375C13.6562 16.0674 13.406 16.6715 12.9606 17.1169C12.5152 17.5623 11.9111 17.8125 11.2812 17.8125H4.15625C3.52636 17.8125 2.92227 17.5623 2.47687 17.1169C2.03147 16.6715 1.78125 16.0674 1.78125 15.4375V4.75H1.1875C0.872555 4.75 0.57051 4.62489 0.347811 4.40219C0.125111 4.17949 0 3.87744 0 3.5625V2.375C0 2.06006 0.125111 1.75801 0.347811 1.53531C0.57051 1.31261 0.872555 1.1875 1.1875 1.1875H5.34375C5.34375 0.872555 5.46886 0.57051 5.69156 0.347811C5.91426 0.125111 6.21631 0 6.53125 0L8.90625 0C9.22119 0 9.52324 0.125111 9.74594 0.347811C9.96864 0.57051 10.0938 0.872555 10.0938 1.1875H14.25C14.5649 1.1875 14.867 1.31261 15.0897 1.53531C15.3124 1.75801 15.4375 2.06006 15.4375 2.375V3.5625ZM3.10888 4.75L2.96875 4.82006V15.4375C2.96875 15.7524 3.09386 16.0545 3.31656 16.2772C3.53926 16.4999 3.84131 16.625 4.15625 16.625H11.2812C11.5962 16.625 11.8982 16.4999 12.1209 16.2772C12.3436 16.0545 12.4688 15.7524 12.4688 15.4375V4.82006L12.3286 4.75H3.10888ZM1.1875 3.5625V2.375H14.25V3.5625H1.1875Z"/>
</svg>
