<svg width="20" height="20" viewBox="0 0 20 20" fill="none" xmlns="http://www.w3.org/2000/svg">
<g clip-path="url(#clip0_169_347)">
<path d="M9.99988 5.9425C9.46704 5.9425 8.93942 6.04745 8.44715 6.25136C7.95487 6.45527 7.50757 6.75414 7.1308 7.13091C6.75402 7.50769 6.45515 7.95498 6.25124 8.44726C6.04733 8.93954 5.94238 9.46716 5.94238 10C5.94238 10.5328 6.04733 11.0605 6.25124 11.5527C6.45515 12.045 6.75402 12.4923 7.1308 12.8691C7.50757 13.2459 7.95487 13.5447 8.44715 13.7486C8.93942 13.9526 9.46704 14.0575 9.99988 14.0575C11.076 14.0575 12.108 13.63 12.869 12.8691C13.6299 12.1082 14.0574 11.0761 14.0574 10C14.0574 8.92388 13.6299 7.89184 12.869 7.13091C12.108 6.36999 11.076 5.9425 9.99988 5.9425ZM7.19238 10C7.19238 9.2554 7.48817 8.54131 8.01468 8.0148C8.54119 7.48829 9.25529 7.1925 9.99988 7.1925C10.7445 7.1925 11.4586 7.48829 11.9851 8.0148C12.5116 8.54131 12.8074 9.2554 12.8074 10C12.8074 10.7446 12.5116 11.4587 11.9851 11.9852C11.4586 12.5117 10.7445 12.8075 9.99988 12.8075C9.25529 12.8075 8.54119 12.5117 8.01468 11.9852C7.48817 11.4587 7.19238 10.7446 7.19238 10Z" fill="black"/>
<path d="M12.2451 1.6788C11.5864 -0.558696 8.41386 -0.558696 7.75511 1.6788L7.63761 2.07755C7.5916 2.23374 7.51123 2.37766 7.40238 2.49875C7.29353 2.61984 7.15896 2.71504 7.00853 2.77737C6.85811 2.8397 6.69565 2.86757 6.53305 2.85895C6.37045 2.85033 6.21185 2.80544 6.06886 2.72755L5.70386 2.52755C3.65386 1.41255 1.41261 3.65505 2.52886 5.7038L2.72761 6.0688C2.80549 6.21179 2.85038 6.3704 2.859 6.533C2.86762 6.69559 2.83975 6.85806 2.77742 7.00848C2.7151 7.1589 2.6199 7.29347 2.49881 7.40232C2.37771 7.51118 2.2338 7.59155 2.07761 7.63755L1.67886 7.75505C-0.558643 8.4138 -0.558643 11.5863 1.67886 12.2451L2.07761 12.3626C2.2338 12.4086 2.37771 12.4889 2.49881 12.5978C2.6199 12.7066 2.7151 12.8412 2.77742 12.9916C2.83975 13.1421 2.86762 13.3045 2.859 13.4671C2.85038 13.6297 2.80549 13.7883 2.72761 13.9313L2.52761 14.2963C1.41261 16.3463 3.65386 18.5888 5.70386 17.4713L6.06886 17.2726C6.21185 17.1947 6.37045 17.1498 6.53305 17.1412C6.69565 17.1325 6.85811 17.1604 7.00853 17.2227C7.15896 17.2851 7.29353 17.3803 7.40238 17.5014C7.51123 17.6224 7.5916 17.7664 7.63761 17.9226L7.75511 18.3213C8.41386 20.5588 11.5864 20.5588 12.2451 18.3213L12.3626 17.9226C12.4086 17.7664 12.489 17.6224 12.5978 17.5014C12.7067 17.3803 12.8413 17.2851 12.9917 17.2227C13.1421 17.1604 13.3046 17.1325 13.4672 17.1412C13.6298 17.1498 13.7884 17.1947 13.9314 17.2726L14.2964 17.4726C16.3464 18.5888 18.5889 16.3451 17.4714 14.2963L17.2726 13.9313C17.1947 13.7883 17.1498 13.6297 17.1412 13.4671C17.1326 13.3045 17.1605 13.1421 17.2228 12.9916C17.2851 12.8412 17.3803 12.7066 17.5014 12.5978C17.6225 12.4889 17.7664 12.4086 17.9226 12.3626L18.3214 12.2451C20.5589 11.5863 20.5589 8.4138 18.3214 7.75505L17.9226 7.63755C17.7664 7.59155 17.6225 7.51118 17.5014 7.40232C17.3803 7.29347 17.2851 7.1589 17.2228 7.00848C17.1605 6.85806 17.1326 6.69559 17.1412 6.533C17.1498 6.3704 17.1947 6.21179 17.2726 6.0688L17.4726 5.7038C18.5889 3.6538 16.3451 1.41255 14.2964 2.5288L13.9314 2.72755C13.7884 2.80544 13.6298 2.85033 13.4672 2.85895C13.3046 2.86757 13.1421 2.8397 12.9917 2.77737C12.8413 2.71504 12.7067 2.61984 12.5978 2.49875C12.489 2.37766 12.4086 2.23374 12.3626 2.07755L12.2451 1.6788ZM8.95386 2.03255C9.26136 0.988804 10.7389 0.988804 11.0464 2.03255L11.1639 2.4313C11.2626 2.76641 11.4352 3.07516 11.6688 3.33493C11.9024 3.59469 12.1912 3.79888 12.514 3.93253C12.8367 4.06617 13.1853 4.12589 13.5342 4.10729C13.8831 4.08869 14.2234 3.99226 14.5301 3.82505L14.8939 3.62505C15.8489 3.1063 16.8939 4.15005 16.3739 5.1063L16.1751 5.4713C16.0082 5.77809 15.912 6.11834 15.8936 6.46712C15.8752 6.81591 15.935 7.16439 16.0688 7.48703C16.2025 7.80968 16.4068 8.09831 16.6666 8.33177C16.9263 8.56524 17.2351 8.73763 17.5701 8.8363L17.9676 8.9538C19.0114 9.2613 19.0114 10.7388 17.9676 11.0463L17.5689 11.1638C17.2338 11.2626 16.925 11.4351 16.6652 11.6687C16.4055 11.9023 16.2013 12.1911 16.0676 12.5139C15.934 12.8367 15.8743 13.1853 15.8929 13.5342C15.9115 13.883 16.0079 14.2233 16.1751 14.5301L16.3751 14.8938C16.8939 15.8488 15.8501 16.8938 14.8939 16.3738L14.5301 16.1751C14.2233 16.0079 13.8829 15.9115 13.534 15.893C13.185 15.8744 12.8364 15.9343 12.5136 16.068C12.1908 16.2018 11.902 16.4061 11.6685 16.666C11.4349 16.926 11.2625 17.2348 11.1639 17.5701L11.0464 17.9676C10.7389 19.0113 9.26136 19.0113 8.95386 17.9676L8.83636 17.5688C8.73754 17.2339 8.56505 16.9253 8.33152 16.6657C8.09799 16.406 7.80935 16.2019 7.48672 16.0683C7.16409 15.9347 6.81566 15.8749 6.46694 15.8934C6.11823 15.9118 5.77806 16.0081 5.47136 16.1751L5.10636 16.3751C4.15136 16.8938 3.10636 15.8501 3.62636 14.8938L3.82511 14.5301C3.99255 14.2233 4.08917 13.8829 4.10789 13.5338C4.12661 13.1848 4.06695 12.8361 3.93329 12.5131C3.79962 12.1902 3.59535 11.9012 3.33546 11.6675C3.07556 11.4338 2.76664 11.2613 2.43136 11.1626L2.03261 11.0451C0.988857 10.7376 0.988857 9.26005 2.03261 8.95255L2.43136 8.83505C2.76611 8.73619 3.07453 8.56373 3.33404 8.33029C3.59354 8.09685 3.79756 7.80834 3.93117 7.48587C4.06479 7.16341 4.1246 6.81515 4.10625 6.46658C4.0879 6.11801 3.99184 5.77796 3.82511 5.4713L3.62511 5.1063C3.10636 4.1513 4.15011 3.1063 5.10636 3.6263L5.47136 3.82505C5.77806 3.99202 6.11823 4.08827 6.46694 4.10675C6.81566 4.12522 7.16409 4.06545 7.48672 3.93182C7.80935 3.7982 8.09799 3.59409 8.33152 3.33446C8.56505 3.07482 8.73754 2.76624 8.83636 2.4313L8.95386 2.03255Z" fill="black"/>
</g>
</svg>
