<svg width="57" height="57" viewBox="0 0 57 57" xmlns="http://www.w3.org/2000/svg">
<g clip-path="url(#clip0_185_75)">
<path d="M50.0886 13.2276C50.516 9.41213 49.7572 6.70106 47.5877 4.22869C44.987 1.26825 40.2988 0 34.2924 0H16.8647C16.2714 0.000256912 15.6976 0.212019 15.2465 0.597257C14.7953 0.982495 14.4962 1.51597 14.403 2.10187L7.14261 48.1258C7.1086 48.3396 7.12137 48.5582 7.18003 48.7665C7.2387 48.9748 7.34187 49.168 7.48242 49.3326C7.62297 49.4972 7.79756 49.6293 7.99414 49.7199C8.19072 49.8105 8.40461 49.8573 8.62105 49.8572H18.4393L17.7197 54.4172C17.6692 54.7365 17.6886 55.0629 17.7764 55.374C17.8642 55.685 18.0183 55.9734 18.2282 56.2192C18.4381 56.465 18.6988 56.6624 18.9923 56.7978C19.2858 56.9332 19.6052 57.0034 19.9284 57.0036H28.9986C30.5269 57.0036 31.8236 55.8992 32.0694 54.3994L32.1585 53.9363L33.8685 43.0956L33.9754 42.5113L33.9789 42.4864C34.0249 42.1909 34.1753 41.9217 34.4027 41.7276C34.6302 41.5335 34.9197 41.4273 35.2187 41.4283H36.5724C41.0826 41.4283 45.2115 40.5163 48.489 38.1864C49.8392 37.2246 51.0255 36.0382 52.0266 34.6061C53.689 32.2917 54.7648 29.6083 55.1615 26.7864C56.0237 22.3476 55.6247 18.3932 53.1309 15.5503C52.3622 14.6925 51.445 13.9805 50.4234 13.4484L50.0886 13.2276ZM23.3092 31.4212C23.6622 31.2368 24.0545 31.1403 24.4528 31.1398H29.5685C39.6148 31.1398 47.4772 27.0643 49.775 15.2653L49.7857 15.2083C50.5588 15.6501 51.2107 16.1702 51.738 16.7687C53.6831 18.9881 54.1569 22.2371 53.3411 26.4231C52.3721 31.3999 50.256 34.6418 47.4167 36.6617C44.5596 38.6923 40.8545 39.5651 36.576 39.5651H35.2222C34.4825 39.5642 33.7667 39.8269 33.2032 40.3061C32.6398 40.7854 32.2656 41.4497 32.1478 42.18L32.0409 42.7642L30.3309 53.6049L30.2454 54.0681L30.2419 54.0823C30.1944 54.3768 30.0435 54.6447 29.8163 54.838C29.5891 55.0313 29.3004 55.1372 29.0021 55.1368H19.932C19.8772 55.137 19.823 55.1253 19.7731 55.1024C19.7233 55.0795 19.679 55.0461 19.6435 55.0044C19.6079 54.9627 19.5818 54.9137 19.567 54.8609C19.5522 54.8081 19.5491 54.7527 19.5579 54.6986L20.2989 49.9961L23.3092 31.4212Z"/>
</g>
</svg>
