<svg width="93" height="64" viewBox="0 0 93 64"xmlns="http://www.w3.org/2000/svg">
<g filter="url(#filter0_d_187_168)">
<path d="M4 47.2C4 49.5339 5.11942 51.7722 7.11199 53.4225C9.10456 55.0729 11.8071 56 14.625 56H78.375C81.1929 56 83.8954 55.0729 85.888 53.4225C87.8806 51.7722 89 49.5339 89 47.2V23H4V47.2ZM16.5223 35.2571C16.5223 34.0068 17.122 32.8077 18.1895 31.9236C19.2569 31.0395 20.7047 30.5429 22.2143 30.5429H31.3214C32.831 30.5429 34.2788 31.0395 35.3463 31.9236C36.4137 32.8077 37.0134 34.0068 37.0134 35.2571V38.4C37.0134 39.6503 36.4137 40.8494 35.3463 41.7335C34.2788 42.6176 32.831 43.1143 31.3214 43.1143H22.2143C20.7047 43.1143 19.2569 42.6176 18.1895 41.7335C17.122 40.8494 16.5223 39.6503 16.5223 38.4V35.2571Z"/>
</g>
<g filter="url(#filter1_d_187_168)">
<path d="M78.375 0H14.625C11.8071 0 9.10456 0.935364 7.11199 2.60032C5.11942 4.26528 4 6.52344 4 8.87805V13H89V8.87805C89 6.52344 87.8806 4.26528 85.888 2.60032C83.8954 0.935364 81.1929 0 78.375 0Z"/>
</g>
</svg>
