<svg width="36" height="45" viewBox="0 0 36 45" fill="none" xmlns="http://www.w3.org/2000/svg">
<path d="M14.9061 0.165397C14.557 0.229709 14.0149 0.349146 13.7117 0.431832C13.1237 0.606394 11.9294 1.12089 11.9294 1.21276C11.9294 1.24033 12.0764 1.36895 12.2509 1.48839C12.8022 1.86507 14.0884 3.27993 14.6856 4.17111C15.6411 5.61354 16.3669 7.22134 16.8538 8.98533L17.0835 9.81219L17.0284 8.25033C17.01 7.38671 16.9641 5.65029 16.9365 4.39161C16.909 3.12375 16.863 1.6262 16.8355 1.05658L16.7803 0.027586L16.174 0.0367727C15.834 0.0367727 15.2644 0.101085 14.9061 0.165397Z" fill="white"/>
<path d="M18.3238 1.50676C18.2963 2.33363 18.2503 4.04249 18.2228 5.31036C18.1952 6.56903 18.1493 8.10333 18.1309 8.7097L18.085 9.81219L18.4065 8.73727C18.9853 6.76197 19.6744 5.31954 20.6942 3.8863C21.2362 3.12375 22.4582 1.81913 22.991 1.41489C23.1564 1.29545 23.2299 1.1852 23.1748 1.13008C23.0186 0.983078 21.6956 0.486957 20.9239 0.303208C20.5013 0.202147 19.7571 0.091898 19.2701 0.0551481L18.3881 2.38419e-05L18.3238 1.50676Z" fill="white"/>
<path d="M9.77035 3.99654C11.0933 5.45734 12.3245 7.59801 13.1605 9.90405C13.3259 10.3634 13.3443 10.4829 13.234 10.3175C12.1591 8.76481 10.9739 7.55207 9.68766 6.69764C8.4933 5.90752 6.7385 5.15416 6.38938 5.29197C6.15969 5.37465 5.25014 6.52308 4.77239 7.33157C4.24871 8.20438 3.69746 9.38037 3.78015 9.45387C3.80771 9.49062 4.01902 9.47224 4.23033 9.41712C5.41551 9.12312 7.31731 9.215 8.76892 9.63762C11.075 10.2991 13.5648 12.0447 15.292 14.2038C15.586 14.5713 15.8524 14.902 15.8984 14.948C16.0454 15.1225 16.0637 14.9204 15.9627 14.2589C15.7146 12.5776 15.1266 10.7309 14.3549 9.18743C13.5648 7.59801 12.6828 6.39446 11.4149 5.15416C10.7993 4.55697 9.41204 3.42692 9.28342 3.42692C9.26504 3.42692 9.48554 3.68417 9.77035 3.99654Z" fill="white"/>
<path d="M25.1225 3.98735C22.2009 6.19234 20.1889 9.49981 19.408 13.331C19.2793 13.9649 19.1875 14.5988 19.2058 14.7458C19.2334 15.0031 19.2701 14.9755 19.9225 14.167C23.0462 10.3542 27.1713 8.627 31.2046 9.45387C31.4986 9.51818 31.4986 9.509 31.4067 9.26094C30.9933 8.17682 30.0194 6.57821 29.2936 5.78809C28.8343 5.28278 28.7883 5.25522 28.4851 5.31034C27.6215 5.47572 26.124 6.2199 24.9755 7.06514C24.167 7.65314 22.9084 8.94856 22.3571 9.74787C22.1182 10.1154 21.8977 10.391 21.8794 10.3726C21.8151 10.3083 22.7154 8.1952 23.2483 7.19377C23.8547 6.04534 24.5437 5.02553 25.3155 4.10679C25.5911 3.78523 25.7932 3.5188 25.7748 3.5188C25.7565 3.5188 25.4625 3.73011 25.1225 3.98735Z" fill="white"/>
<path d="M4.64377 11.1903C3.52291 11.42 3.42184 11.4751 3.00841 12.0907C1.52005 14.3232 0.426743 18.0625 0.0684336 22.1601C-0.0693778 23.7312 0.0133091 28.2789 0.206245 29.9694C0.279744 30.6401 0.353244 31.2097 0.371619 31.2189C0.389994 31.2373 0.399181 29.8775 0.408368 28.2054C0.408368 24.9531 0.50943 23.7128 0.950427 21.2873C1.63948 17.5848 3.0176 14.6999 4.6989 13.4504C6.43532 12.1734 8.39224 11.9345 10.735 12.7062C11.7089 13.0278 11.8375 13.0645 11.8375 13.0278C11.8375 12.9359 10.0827 11.9712 9.54067 11.7507C7.99718 11.1352 5.98514 10.9055 4.64377 11.1903Z" fill="white"/>
<path d="M27.2724 11.2363C26.271 11.4476 25.7473 11.6313 24.8377 12.0815C24.1027 12.449 23.2024 12.9819 23.2483 13.0278C23.2667 13.0462 23.6434 12.9359 24.0936 12.7797C26.4731 11.9804 28.3841 12.1182 30.0286 13.2115C32.2979 14.7183 33.7312 18.0166 34.4478 23.3361C34.604 24.457 34.6591 25.5043 34.705 27.9574L34.7602 31.127L34.9255 29.2895C35.1277 26.9743 35.1368 23.382 34.9439 21.4343C34.5672 17.7042 33.5566 14.4151 32.0866 12.1366C31.7283 11.5762 31.6548 11.5119 31.2046 11.3741C30.0103 11.0158 28.5219 10.9698 27.2724 11.2363Z" fill="white"/>
<path d="M9.90817 14.1027C10.7075 14.8745 10.8177 15.1776 10.3492 15.3522C10.1838 15.4073 9.8898 15.5819 9.70605 15.7381C9.0078 16.3169 9.0813 17.1529 9.88061 17.842L10.294 18.1911L9.62336 18.4024C7.80425 18.9537 6.41695 19.9 5.87489 20.9657C5.70033 21.2965 5.47983 22.0774 5.55333 22.0774C5.57171 22.0774 5.90245 21.7558 6.29751 21.3608C7.68482 19.9551 9.47636 19.2477 12.6185 18.8526C14.5386 18.6137 15.0715 18.4667 15.5217 18.0349C15.9811 17.6031 15.9994 17.2448 15.6044 16.6201C14.6121 15.0582 12.6185 14.0016 10.3675 13.8455L9.58661 13.7903L9.90817 14.1027ZM12.9584 16.9324C12.94 17.1621 12.986 17.3367 13.1238 17.5112C13.4637 17.9339 14.2538 17.8052 14.4284 17.2907C14.4743 17.1621 14.7775 17.2356 14.7775 17.3918C14.7775 17.4377 14.6581 17.6123 14.5111 17.7777C14.263 18.0533 14.1987 18.0809 13.6934 18.0809C13.234 18.0809 13.0962 18.0441 12.9033 17.8604C12.4347 17.4194 12.352 16.519 12.7838 16.5833C12.9584 16.6109 12.986 16.6568 12.9584 16.9324Z" fill="white"/>
<path d="M23.7444 13.9557C21.7048 14.36 20.0143 15.4349 19.2885 16.7946C18.9945 17.3459 19.0313 17.6399 19.4539 18.0349C19.8949 18.4576 20.4737 18.6229 22.1274 18.8159C25.7105 19.2385 27.8328 20.1572 29.2293 21.8937L29.4774 22.2152L29.4222 21.8477C29.1926 20.4237 27.7409 19.165 25.5176 18.4392L24.7183 18.1911L25.2052 17.7134C25.7105 17.2173 25.8851 16.7946 25.7565 16.3812C25.6554 16.0505 25.1868 15.5911 24.7734 15.4165C24.5529 15.3155 24.3692 15.2328 24.3508 15.2236C24.2405 15.1593 24.6632 14.5162 25.0215 14.1946L25.4625 13.8087L24.9204 13.8179C24.6264 13.8179 24.0935 13.8822 23.7444 13.9557ZM22.4031 16.9416C22.4031 18.1819 20.7953 18.6046 20.2164 17.5113C20.0327 17.1805 20.3543 17.1621 20.6299 17.4837C20.8136 17.7042 20.9331 17.7593 21.2179 17.7593C21.714 17.7593 21.9437 17.5113 21.9437 16.9784C21.9437 16.6017 21.9621 16.565 22.1734 16.565C22.3847 16.565 22.4031 16.6017 22.4031 16.9416Z" fill="white"/>
<path d="M17.1111 18.7791C16.7528 18.8159 16.2751 18.9261 16.0362 19.0272C15.4849 19.2661 14.7959 19.9184 14.5846 20.3777C14.1528 21.3149 14.5846 21.912 15.8616 22.1233C16.0729 22.1601 16.2475 22.2152 16.2475 22.252C16.2475 22.3806 16.9733 22.7205 17.3776 22.7757C17.8461 22.84 18.3698 22.7022 18.774 22.399C18.9302 22.2795 19.3253 22.1233 19.6469 22.0407C20.7126 21.765 20.9423 21.4619 20.7126 20.6534C20.5288 20.047 19.9868 19.4866 19.2242 19.1191C18.526 18.7975 17.9656 18.7056 17.1111 18.7791Z" fill="white"/>
<path d="M3.62398 22.0958C2.03456 25.3389 1.65787 28.674 2.56743 31.4578C2.91655 32.5235 3.95473 34.3885 4.20279 34.3885C4.23954 34.3885 4.30385 33.8189 4.33142 33.1207C4.47841 29.7489 5.92084 26.6619 8.53926 24.117C8.86082 23.8046 9.15481 23.5474 9.20075 23.5474C9.2375 23.5474 9.26506 23.5015 9.26506 23.4555C9.26506 23.4004 9.07213 23.4647 8.83325 23.6025C6.66502 24.8428 4.80916 27.0845 3.88123 29.5835C3.75261 29.9326 3.63317 30.2726 3.60561 30.3461C3.52292 30.5482 3.42186 30.2266 3.22892 29.216C3.11867 28.6188 3.07274 27.9114 3.07274 26.8089C3.07274 25.4767 3.10949 25.0817 3.3208 24.0894C3.44942 23.4555 3.70667 22.5276 3.88123 22.0223C4.05579 21.5262 4.18442 21.1035 4.16604 21.0852C4.14767 21.0668 3.90879 21.5262 3.62398 22.0958Z" fill="white"/>
<path d="M30.8096 21.3148C31.6364 23.3085 32.059 26.028 31.8661 27.9941C31.7742 28.9312 31.5445 30.1899 31.4343 30.3828C31.4067 30.4196 31.3057 30.2175 31.2046 29.9235C30.9474 29.1242 30.1756 27.6082 29.6703 26.8824C28.7332 25.5502 27.3275 24.2732 25.9402 23.5015C25.49 23.2442 25.49 23.2534 26.2342 23.9516C28.9445 26.4874 30.4788 29.6938 30.6442 33.1666C30.6717 33.8373 30.7361 34.3885 30.7728 34.3885C30.9014 34.3885 31.5997 33.2952 31.9304 32.5694C33.088 30.0705 33.1799 27.3234 32.2152 24.2824C31.9396 23.4096 30.9198 21.1587 30.8096 21.1587C30.7728 21.1587 30.7728 21.2322 30.8096 21.3148Z" fill="white"/>
<path d="M14.41 23.1891C12.8298 23.4371 11.663 23.8873 10.7442 24.5948C9.18235 25.7983 8.08905 27.645 7.46431 30.1623C7.13356 31.4761 7.20706 31.5313 7.64805 30.3001C8.36467 28.3157 9.18235 26.8916 10.0276 26.2209C10.7167 25.6697 10.7718 25.6605 13.4637 25.6605C14.851 25.6605 16.0729 25.6146 16.2659 25.5686C16.4496 25.5135 16.7252 25.3297 16.8814 25.146C17.1111 24.8887 17.1662 24.7509 17.1662 24.3926C17.1662 23.2718 16.2934 22.8951 14.41 23.1891Z" fill="white"/>
<path d="M18.6362 23.2901C17.7542 23.8873 17.8185 25.0541 18.7557 25.4859C19.1048 25.6421 19.3896 25.6605 21.6956 25.6605C24.213 25.6605 24.2497 25.6605 24.6907 25.881C25.784 26.4414 26.7579 27.9849 27.6491 30.5758C28.0717 31.7793 28.1085 31.5956 27.741 30.1531C27.2081 28.04 26.4272 26.5149 25.2971 25.3573C23.8914 23.9149 22.302 23.2534 19.9225 23.1248C19.0129 23.0696 18.9394 23.0788 18.6362 23.2901Z" fill="white"/>
<path d="M10.8269 26.6619C10.5329 26.9559 10.4686 27.3142 10.6523 27.7185C10.8545 28.1411 11.663 28.2881 11.7273 27.9114C11.8008 27.5439 12.1315 26.864 12.2785 26.8089C12.499 26.7262 12.7379 27.1489 12.9951 28.0217C13.0227 28.1135 13.9966 28.1411 17.4786 28.1411H21.9253L21.9896 27.7736C22.0539 27.3969 22.3663 26.8457 22.5592 26.7905C22.7062 26.7354 22.9543 27.1397 23.0829 27.6542C23.1932 28.086 23.2024 28.0952 23.579 28.1227C23.8914 28.1503 24.0109 28.1043 24.1854 27.9206C24.4886 27.6266 24.5621 27.2867 24.4243 26.9375C24.2313 26.4874 23.9374 26.3955 22.5868 26.3955H21.3924V26.717V27.0386H20.5196H19.6468V26.717C19.6468 26.3128 19.4815 26.2944 19.4447 26.6895L19.4171 26.9927L18.5995 27.0202C17.7267 27.0478 17.6256 27.0019 17.6256 26.5976C17.6256 26.4782 17.5888 26.4139 17.5337 26.4414C17.4878 26.469 17.4418 26.616 17.4418 26.7722V27.0386H16.569H15.6962V26.7722C15.6962 26.616 15.6595 26.469 15.6044 26.4414C15.5492 26.4047 15.5125 26.5149 15.5125 26.7079V27.0386H14.6489H13.7761L13.7485 26.7354L13.7209 26.4414L12.4071 26.4139L11.0933 26.3863L10.8269 26.6619Z" fill="white"/>
<path d="M14.2446 30.0889C14.41 30.98 14.9245 31.6783 16.0454 32.5143C16.3118 32.7073 16.6609 33.0564 16.8079 33.2861C17.0652 33.6719 17.35 34.4437 17.35 34.7469C17.35 34.9949 17.497 34.7285 17.6164 34.2508C17.791 33.5433 18.2136 32.9645 19.0129 32.3581C20.0143 31.5956 20.5105 30.8882 20.6299 30.0245L20.685 29.6111H17.4235H14.1619L14.2446 30.0889Z" fill="white"/>
<path d="M24.801 31.1638C24.6264 32.5511 24.1854 33.6352 23.4688 34.4345L23.1473 34.802L23.2024 34.2416C23.2575 33.626 23.184 33.0104 23.0462 33.0104C23.0003 33.0104 22.8808 33.1942 22.7798 33.4147C22.3571 34.3886 21.5027 35.3624 20.3175 36.2628C19.3161 37.0162 18.6362 38.1186 18.4341 39.313C18.3055 40.1123 18.4617 41.1046 18.8751 42.0233L19.1415 42.6113L19.1967 41.6926C19.261 40.7463 19.4998 39.9194 19.8214 39.5151C19.9868 39.313 19.996 39.3222 19.996 39.9929C20.0052 40.8841 20.2532 41.6834 20.832 42.6389C21.3006 43.4198 22.0264 44.3845 22.449 44.7703L22.6971 45L22.5409 44.6325C21.9621 43.2636 21.714 42.3724 21.5854 41.2148C21.4384 39.8459 21.7783 38.0451 22.3663 37.0897L22.5776 36.7313L22.5225 37.4663C22.4674 38.2656 22.6236 39.065 22.9635 39.7908C23.1656 40.2042 23.7352 40.93 23.7996 40.8657C23.8179 40.8381 23.7996 40.5074 23.7536 40.1215C23.5791 38.5872 24.1762 37.0529 25.4625 35.7391C25.9219 35.2705 26.2802 34.802 26.4272 34.4896C26.96 33.3412 26.5466 31.9355 25.3155 30.732L24.9112 30.3369L24.801 31.1638Z" fill="white"/>
<path d="M9.69686 30.8881C8.82406 31.8161 8.51168 32.5051 8.52087 33.4882C8.52087 34.2783 8.81487 34.8387 9.69686 35.7391C10.9647 37.0345 11.4149 38.1462 11.3598 39.8643L11.3322 40.9024L11.6262 40.6176C12.2969 39.9653 12.7287 38.5688 12.6277 37.3745L12.5725 36.7313L12.793 37.0897C12.9216 37.2918 13.133 37.8063 13.28 38.2381C13.5188 38.9639 13.5372 39.1385 13.5372 40.4523C13.5372 42.0325 13.4086 42.6756 12.8022 44.2007L12.4898 45L12.9951 44.4488C13.6107 43.7873 14.4008 42.6205 14.7316 41.9039C15.0348 41.2332 15.2553 40.1858 15.1818 39.6989L15.1358 39.3038L15.3196 39.5151C15.6963 39.9469 15.9076 40.7095 15.9167 41.7017C15.9167 42.2162 15.9535 42.6205 15.9902 42.6021C16.1372 42.5102 16.615 41.1505 16.7161 40.5533C16.9825 38.9455 16.2107 37.2734 14.6489 36.0882C13.5648 35.2705 12.6828 34.2232 12.2969 33.2953C12.0488 32.6981 11.8835 33.1207 11.957 34.1405L12.0029 34.802L11.663 34.4161C10.9647 33.6352 10.487 32.4133 10.3216 31.0076C10.2849 30.6952 10.2297 30.438 10.1838 30.438C10.147 30.438 9.92655 30.6401 9.69686 30.8881Z" fill="white"/>
</svg>
