<svg xmlns="http://www.w3.org/2000/svg"  viewBox="0 0 50 50" width="150px" height="150px"><path d="M 24.908203 0 C 13.703203 0 8.1015625 9.0480469 8.1015625 22.623047 L 8.1015625 25.15625 C 8.0415293 25.760614 8 26.372919 8 27 C 8 36.01 6.6763594 40.615437 6.1933594 41.273438 C 5.9703594 41.576437 5.9364219 41.980406 6.1074219 42.316406 C 6.2774219 42.652406 6.623 42.863281 7 42.863281 L 10.251953 42.863281 L 10.251953 46.976562 C 10.251953 47.297563 10.405062 47.599109 10.664062 47.787109 C 10.923062 47.975109 11.2595 48.027734 11.5625 47.927734 L 17.193359 46.080078 L 19.914062 49.609375 C 20.088062 49.834375 20.350766 49.975094 20.634766 49.996094 C 20.922766 50.017094 21.198344 49.91775 21.402344 49.71875 L 24.908203 46.322266 L 28.416016 49.71875 C 28.602016 49.90075 28.852328 50 29.111328 50 C 29.136328 50 29.159594 49.999094 29.183594 49.996094 C 29.467594 49.975094 29.728344 49.835375 29.902344 49.609375 L 32.623047 46.078125 L 38.253906 47.925781 C 38.557906 48.025781 38.893344 47.973156 39.152344 47.785156 C 39.412344 47.597156 39.564453 47.297562 39.564453 46.976562 L 39.564453 42.863281 L 42.818359 42.863281 C 43.194359 42.863281 43.537984 42.649453 43.708984 42.314453 C 43.878984 41.979453 43.845047 41.575484 43.623047 41.271484 C 43.189047 40.676484 42 36.189 42 27 C 42 25.948077 41.89341 24.921742 41.716797 23.927734 L 41.716797 23.755859 C 41.716797 7.9188594 36.114203 4.7369516e-15 24.908203 0 z M 21.707031 10.658203 C 22.583031 11.120203 23.581531 11.811109 24.019531 12.662109 C 24.362531 13.329109 25.454828 13.329109 25.798828 12.662109 C 26.235828 11.811109 27.234328 11.119203 28.111328 10.658203 L 28.111328 13.226562 C 28.111328 13.682563 28.424234 14.0735 28.865234 14.1875 C 29.312234 14.3045 29.774141 14.095266 29.994141 13.697266 C 30.023141 13.645266 30.6265 12.588484 32.3125 12.271484 L 32.3125 14.25 C 32.3125 14.802 32.7595 15.25 33.3125 15.25 C 35.6615 15.25 40 20.096 40 27 C 40 33.688 40.610031 38.420234 41.332031 40.865234 L 38.564453 40.865234 C 38.011453 40.865234 37.564453 41.313234 37.564453 41.865234 L 37.564453 43.837891 C 36.05977 41.486916 36 39.027236 36 39 L 36 37 C 36 33.325 34.511406 31.117734 31.316406 30.052734 C 30.787406 29.874734 30.227734 30.160594 30.052734 30.683594 C 29.877734 31.207594 30.160594 31.774219 30.683594 31.949219 C 33.069594 32.744219 34 34.161 34 37 L 34 39.160156 C 34 39.212156 34.003719 39.2635 34.011719 39.3125 C 34.06374 40.17979 34.378339 42.676058 35.984375 45.080078 L 32.574219 43.960938 C 32.172219 43.830937 31.729703 43.964781 31.470703 44.300781 L 29.648438 46.664062 C 29.014064 44.23049 29 42.023516 29 41.998047 C 28.999 41.446047 28.552 41 28 41 L 27.998047 41 C 27.446047 41.001 27 41.448 27 42 C 27 42.096181 27.008916 43.829464 27.443359 45.996094 L 25.603516 44.214844 C 25.410516 44.026844 25.159203 43.931641 24.908203 43.931641 C 24.657203 43.931641 24.407844 44.024891 24.214844 44.212891 L 22.589844 45.787109 C 22.980501 43.72765 23 42.0928 23 42 C 23 41.448 22.553 41 22 41 C 21.447 41 21 41.448 21 42 C 21 42.025177 20.98381 44.327231 20.300781 46.835938 L 18.347656 44.298828 C 18.088656 43.961828 17.645141 43.826984 17.244141 43.958984 L 14.068359 45.001953 C 15.628777 42.622004 15.936826 40.169556 15.988281 39.3125 C 15.996281 39.2635 16 39.212156 16 39.160156 L 16 37 C 16 34.161 16.929406 32.743266 19.316406 31.947266 C 19.840406 31.772266 20.124219 31.207594 19.949219 30.683594 C 19.775219 30.160594 19.210594 29.873781 18.683594 30.050781 C 15.487594 31.116781 14 33.325 14 37 L 14 38.998047 C 13.999142 39.065005 13.937301 41.709689 12.253906 44.126953 L 12.253906 41.863281 C 12.253906 41.311281 11.806906 40.863281 11.253906 40.863281 L 8.5078125 40.863281 C 9.2538125 38.503281 10 33.902 10 27 C 10 20.096 14.219859 15.25 16.505859 15.25 C 17.058859 15.25 17.505859 14.802 17.505859 14.25 L 17.505859 12.222656 C 19.324859 12.377656 20.008719 12.921875 20.011719 12.921875 C 20.299719 13.202875 20.729656 13.283953 21.097656 13.126953 C 21.467656 12.970953 21.707031 12.607078 21.707031 12.205078 L 21.707031 10.658203 z M 19.667969 19 C 13.000969 19 13 27 13 27 C 13 27 14.111969 25 19.667969 25 C 21.508969 25 23 23.657 23 22 C 23 20.343 21.508969 19 19.667969 19 z M 30.332031 19 C 28.491031 19 27 20.343 27 22 C 27 23.657 28.491031 25 30.332031 25 C 35.888031 25 37 27 37 27 C 37 27 36.999031 19 30.332031 19 z M 20 21 C 20.552 21 21 21.448 21 22 C 21 22.552 20.552 23 20 23 C 19.448 23 19 22.552 19 22 C 19 21.448 19.448 21 20 21 z M 30 21 C 30.552 21 31 21.448 31 22 C 31 22.552 30.552 23 30 23 C 29.448 23 29 22.552 29 22 C 29 21.448 29.448 21 30 21 z M 25 25 C 22.375 25 21 27.526391 21 28.400391 C 21 29.344391 21.743453 30.566344 23.814453 30.902344 C 24.164453 30.967344 24.553 31 25 31 C 25.447 31 25.835156 30.96725 26.160156 30.90625 C 28.256156 30.56625 29 29.344391 29 28.400391 C 29 27.526391 27.625 25 25 25 z M 21 33 C 19.346 33 18 34.346 18 36 C 18 37.654 19.346 39 21 39 L 29 39 C 30.654 39 32 37.654 32 36 C 32 34.346 30.654 33 29 33 L 21 33 z M 21 35 L 22 37 L 21 37 C 20.669891 37 20.391134 36.828972 20.208984 36.582031 L 21 35 z M 23 35 L 27 35 L 27 36 L 23 36 L 23 35 z M 29 35 L 29.791016 36.582031 C 29.608866 36.828972 29.330109 37 29 37 L 28 37 L 29 35 z"/></svg>