<svg viewBox="0 0 20 20" xmlns="http://www.w3.org/2000/svg">
<path d="M2.00877 4.00013C1.92052 3.99778 1.83291 4.02838 1.75102 4.09015C1.66913 4.15192 1.5946 4.24362 1.53175 4.35992C1.46891 4.47622 1.41901 4.61481 1.38494 4.76763C1.35088 4.92045 1.33334 5.08446 1.33334 5.25011C1.33334 5.41576 1.35088 5.57977 1.38494 5.73259C1.41901 5.88541 1.46891 6.02399 1.53175 6.1403C1.5946 6.2566 1.66913 6.3483 1.75102 6.41007C1.83291 6.47184 1.92052 6.50244 2.00877 6.50009H17.9913C18.0795 6.50244 18.1671 6.47184 18.249 6.41007C18.3309 6.3483 18.4054 6.2566 18.4683 6.1403C18.5311 6.02399 18.581 5.88541 18.6151 5.73259C18.6491 5.57977 18.6667 5.41576 18.6667 5.25011C18.6667 5.08446 18.6491 4.92045 18.6151 4.76763C18.581 4.61481 18.5311 4.47622 18.4683 4.35992C18.4054 4.24362 18.3309 4.15192 18.249 4.09015C18.1671 4.02838 18.0795 3.99778 17.9913 4.00013H2.00877ZM2.00877 8.75002C1.92052 8.74767 1.83291 8.77828 1.75102 8.84004C1.66913 8.90181 1.5946 8.99351 1.53175 9.10981C1.46891 9.22612 1.41901 9.3647 1.38494 9.51752C1.35088 9.67034 1.33334 9.83435 1.33334 10C1.33334 10.1657 1.35088 10.3297 1.38494 10.4825C1.41901 10.6353 1.46891 10.7739 1.53175 10.8902C1.5946 11.0065 1.66913 11.0982 1.75102 11.16C1.83291 11.2217 1.92052 11.2523 2.00877 11.25H17.9913C18.0795 11.2523 18.1671 11.2217 18.249 11.16C18.3309 11.0982 18.4054 11.0065 18.4683 10.8902C18.5311 10.7739 18.581 10.6353 18.6151 10.4825C18.6491 10.3297 18.6667 10.1657 18.6667 10C18.6667 9.83435 18.6491 9.67034 18.6151 9.51752C18.581 9.3647 18.5311 9.22612 18.4683 9.10981C18.4054 8.99351 18.3309 8.90181 18.249 8.84004C18.1671 8.77828 18.0795 8.74767 17.9913 8.75002H2.00877ZM2.00877 13.4999C1.92052 13.4976 1.83291 13.5282 1.75102 13.5899C1.66913 13.6517 1.5946 13.7434 1.53175 13.8597C1.46891 13.976 1.41901 14.1146 1.38494 14.2674C1.35088 14.4202 1.33334 14.5842 1.33334 14.7499C1.33334 14.9155 1.35088 15.0796 1.38494 15.2324C1.41901 15.3852 1.46891 15.5238 1.53175 15.6401C1.5946 15.7564 1.66913 15.8481 1.75102 15.9099C1.83291 15.9716 1.92052 16.0022 2.00877 15.9999H17.9913C18.0795 16.0022 18.1671 15.9716 18.249 15.9099C18.3309 15.8481 18.4054 15.7564 18.4683 15.6401C18.5311 15.5238 18.581 15.3852 18.6151 15.2324C18.6491 15.0796 18.6667 14.9155 18.6667 14.7499C18.6667 14.5842 18.6491 14.4202 18.6151 14.2674C18.581 14.1146 18.5311 13.976 18.4683 13.8597C18.4054 13.7434 18.3309 13.6517 18.249 13.5899C18.1671 13.5282 18.0795 13.4976 17.9913 13.4999H2.00877Z" fill="white"/>
</svg>
