<svg width="75" height="75" viewBox="0 0 75 75" fill="none" xmlns="http://www.w3.org/2000/svg">
<path d="M6.25 75C6.25 75 0 75 0 68.75C0 62.5 6.25 43.75 37.5 43.75C68.75 43.75 75 62.5 75 68.75C75 75 68.75 75 68.75 75H6.25ZM37.5 37.5C42.4728 37.5 47.2419 35.5246 50.7583 32.0083C54.2746 28.4919 56.25 23.7228 56.25 18.75C56.25 13.7772 54.2746 9.00806 50.7583 5.49175C47.2419 1.97544 42.4728 0 37.5 0C32.5272 0 27.7581 1.97544 24.2417 5.49175C20.7254 9.00806 18.75 13.7772 18.75 18.75C18.75 23.7228 20.7254 28.4919 24.2417 32.0083C27.7581 35.5246 32.5272 37.5 37.5 37.5Z" fill="black"/>
</svg>
